# xmcd
#
# Track frame offsets:
#	150
#	14160
#	34622
#	52180
#	68930
#	79915
#	100075
#	115982
#	134787
#	149430
#	168780
#	185732
#
# Disc length: 2710 seconds
#
# Revision: 0
# Processed by: cddbd v1.4PL0 Copyright (c) Steve Scherf et al.
# Submitted via: audiograbber 1.81.01
#
DISCID=b50a940c
DTITLE=Franco Califano - I Grandi Successi Originali cd1
DYEAR=1900
DGENRE=pop
TTITLE0=Roma nuda
TTITLE1=Tutto il resto e noia
TTITLE2=La pelle
TTITLE3=Me 'nnamoro dè tè
TTITLE4=Monica
TTITLE5=La vacanza di fine settimana
TTITLE6=Un passo dietro un passo
TTITLE7=Bimba mia
TTITLE8=Pasquale l'infermiere
TTITLE9=Alla faccia del tuo uomo
TTITLE10=Capodanno
TTITLE11=Balla-ba
EXTD=
EXTT0=
EXTT1=
EXTT2=
EXTT3=
EXTT4=
EXTT5=
EXTT6=
EXTT7=
EXTT8=
EXTT9=
EXTT10=
EXTT11=
PLAYORDER=
